<?xml version="1.0" encoding="utf-8"?>
<!-- Generator: Adobe Illustrator 15.1.0, SVG Export Plug-In . SVG Version: 6.00 Build 0)  -->
<!DOCTYPE svg PUBLIC "-//W3C//DTD SVG 1.1//EN" "http://www.w3.org/Graphics/SVG/1.1/DTD/svg11.dtd">
<svg version="1.1" id="Layer_1" xmlns:sketch="http://www.bohemiancoding.com/sketch/ns"
	 xmlns="http://www.w3.org/2000/svg" xmlns:xlink="http://www.w3.org/1999/xlink" x="0px" y="0px" width="1440px" height="350px"
	 viewBox="0 0 1440 350" enable-background="new 0 0 1440 350" xml:space="preserve">
<title>Path 86 + Path 87 + Path 88</title>
<desc>Created with Sketch.</desc>
<defs>
	<filter id="Adobe_OpacityMaskFilter" filterUnits="userSpaceOnUse" x="-1.01" y="-0.161" width="1441.893" height="349.183">
		<feColorMatrix  type="matrix" values="1 0 0 0 0  0 1 0 0 0  0 0 1 0 0  0 0 0 1 0"/>
	</filter>
</defs>
<mask maskUnits="userSpaceOnUse" x="-1.01" y="-0.161" width="1441.893" height="349.183" id="Page-1_1_">
	<g filter="url(#Adobe_OpacityMaskFilter)">
		<linearGradient id="SVGID_1_" gradientUnits="userSpaceOnUse" x1="3.3086" y1="173.25" x2="1436.3223" y2="173.25">
			<stop  offset="0" style="stop-color:#000000"/>
			<stop  offset="0.0859" style="stop-color:#FFFFFF"/>
			<stop  offset="0.9202" style="stop-color:#FFFFFF"/>
			<stop  offset="1" style="stop-color:#000000"/>
		</linearGradient>
		<rect x="3.309" y="-3.5" fill="url(#SVGID_1_)" stroke="#000000" stroke-miterlimit="10" width="1433.014" height="353.5"/>
	</g>
</mask>
<g id="Page-1" sketch:type="MSPage" mask="url(#Page-1_1_)">
	<g id="Desktop-HD-5" transform="translate(0.000000, -150.000000)" sketch:type="MSArtboardGroup">
		
			<g id="Path-86-_x2B_-Path-87-_x2B_-Path-88" transform="translate(720.320276, 324.151428) rotate(2.000000) translate(-720.320276, -324.151428) translate(-4.679724, 125.651428)" sketch:type="MSLayerGroup">
			<path id="Path-86" sketch:type="MSShapeGroup" opacity="0.4055" fill="none" stroke="#67B4D6" enable-background="new    " d="
				M11.121,394.272c22.203-0.017,45.449,3.042,63.942-0.437c11.101-2.088,21.834-4.876,33.007-6.463
				c13.856-1.966,25.265-13.632,38.479-19.03c34.885-14.248,71.038-23.059,106.302-33.204c14.211-4.088,60.031-17.843,72.963-25.543
				c12.125-7.22,18.327-20.869,31.775-19.392c23.252,2.552,46.385,17.009,69.774,20.566c26.529,4.034,53.823-5.846,80.222,2.502
				c10.455,3.305,71.022-6.921,81.246-2.26c29.446,13.429,40.586-18.346,70.543-22.061c19.974-2.478,13.113,24.895,31.373,13.801
				c31.227-18.973,67.159-42.38,101.035-46.583c14.365-1.783,33.222-8.451,47.579-1.661c39.408,18.634,43.671,25.937,86.656,7.004
				c22.573-9.944,42.571-12.303,63.201-28.964c14.698-11.87,30.454-32.024,45.45-42.652c21.175-15.007,84.901-9.393,107.679-19.426
				c28.773-12.672,60.168-16.013,89.743-20.109c32.712-4.531,18.987-39.376,52.002-40.529c21.568-0.753,44.104,7.042,65.468,3.023
				c4.034-0.758,8.784-9.658,11.761-12.21c6.216-5.329,8.367-2.866,15.243-7.605c12.013-8.282,24.586-21.006,35.423-32.493
				c10.011-10.61,18.119-25.529,26.998-37.725"/>
			<path id="Path-87" sketch:type="MSShapeGroup" opacity="0.4055" fill="none" stroke="#67B4D6" enable-background="new    " d="
				M8.934,359.353c9.474,1.34,20.814,8.598,28.28,8.598c39.406,0,78.453,3.326,117.726-2.948
				c12.181-1.946,53.743-9.85,61.264-14.734c8.858-5.751,15.665-20.218,23.252-28.878c6.508-7.428,28.721-21.962,36.167-25.34
				c20.269-9.196,87.044,17.298,112.561,19.444c41.807,3.516,44.454-21.476,79.717-27.109
				c71.742-11.462,151.798,50.802,222.906,39.485c8.132-1.294,14.509-10.92,22.513-12.965
				c44.539-11.38,98.638-80.508,130.644-87.814c20.133-4.595,46.27,45.362,64.993,55.688c8.153,4.497,7.438-22.813,14.468-27.301
				c10.133-6.469,28.125,7.357,42.699,4.03c17.211-3.929,34.176-23.721,50.768-31.281c10.696-4.874,92.323-35.91,102.949-41.004
				c53.445-25.624,37.171-9.001,90.595-34.979c9.658-4.697,62.06-34.873,69.383-36.543c47.881-10.924,115.205,1.01,162.583-3.636"/>
			<path id="Path-88" sketch:type="MSShapeGroup" opacity="0.4055" fill="none" stroke="#67B4D6" enable-background="new    " d="
				M9.86,356.754c10.438-3.636,21.094-6.883,31.821-10.875c2.758-1.027,19.389-14.794,21.406-12.376
				c19.948,23.927,30.872,41.463,57.938,30.647c2.996-1.197,2.733,4.056,6.185,4.055c2.44,0,9.8-2.182,11.765,0.001
				c1.459,1.619,3.725,9.214,6.094,9.215c1.513,0,6.365,13.63,7.658,10.534c7.425-17.787,22.257-29.161,32.802-44.129
				c6.633-9.417,23.944-59.365,36.813-49.88c6.931,5.109,0.235,2.771,9.226,7.075c5.78,2.767,13.977-1.805,19.191,1.763
				c13.44,9.199,16.846,33.105,39.489,24.757c14.684-5.413,27.015-27.312,39.859-38.902c8.445-7.621,16.784-9.75,25.094-14.733
				c1.515-0.909,21.782,28.144,36.905,34.185c27.809,11.107,59.391-3.905,87.466-1.769c11.144,0.848,19.461,15.82,34.694,18.861
				c28.372,5.667,72.043-9.549,96.161-28.81c30.78-24.581,60.246-1.449,94.173-5.321c54.844-6.26,89.868-21.647,145.136-34.238
				c31.032-7.07,64.81-4.967,95.216-17.085c7.482-2.983,26.352,2.291,34.095,2.9c16.756,1.32,1.221-13.162,26.809-37.662
				c25.587-24.5,39.678,24.559,51.396,18.327c14.579-7.756,79.552-50.521,91.308-65.122
				c19.721-24.492,118.379-15.549,142.562-26.281c75.993-33.724,64.327-49.09,135.446-120.841
				c3.944-3.979,8.062-7.699,12.154-11.514"/>
			<circle id="Oval-8" sketch:type="MSShapeGroup" fill="none" stroke="#67B4D6" cx="61.5" cy="332.5" r="5.499">
			</circle>
			<circle id="Oval-9" sketch:type="MSShapeGroup" fill="none" stroke="#67B4D6" cx="151.5" cy="387.5" r="5.499">
			</circle>
			<circle id="Oval-9_1_" sketch:type="MSShapeGroup" fill="none" stroke="#67B4D6" cx="257.5" cy="308.5" r="5.5">
			</circle>
			<circle id="Oval-9_2_" sketch:type="MSShapeGroup" fill="none" stroke="#67B4D6" cx="424.499" cy="310.5" r="5.5">
			</circle>
			<circle id="Oval-10" sketch:type="MSShapeGroup" fill="none" stroke="#67B4D6" cx="588.5" cy="309.5" r="5.5">
			</circle>
			<circle id="Oval-10_1_" sketch:type="MSShapeGroup" fill="none" stroke="#67B4D6" cx="1023.5" cy="199.501" r="5.499">
			</circle>
			<circle id="Oval-10_2_" sketch:type="MSShapeGroup" fill="none" stroke="#67B4D6" cx="913.5" cy="283.5" r="5.5">
			</circle>
			<circle id="Oval-10_3_" sketch:type="MSShapeGroup" fill="none" stroke="#67B4D6" cx="1259.5" cy="124.5" r="5.5">
			</circle>
			<circle id="Oval-10_4_" sketch:type="MSShapeGroup" fill="none" stroke="#67B4D6" cx="1131.499" cy="173.501" r="5.5">
			</circle>
			<circle id="Oval-10_5_" sketch:type="MSShapeGroup" fill="none" stroke="#67B4D6" cx="1407.5" cy="67.501" r="5.5">
			</circle>
		</g>
	</g>
</g>
</svg>
